<svg xmlns="http://www.w3.org/2000/svg" viewBox="0 0 64 64">
  <defs>
    <linearGradient id="bg" x1="0%" y1="0%" x2="100%" y2="100%">
      <stop offset="0%" stop-color="#1a1a1a"/>
      <stop offset="100%" stop-color="#0a0a0a"/>
    </linearGradient>
    <linearGradient id="red" x1="0%" y1="0%" x2="100%" y2="100%">
      <stop offset="0%" stop-color="#c23616"/>
      <stop offset="50%" stop-color="#e84118"/>
      <stop offset="100%" stop-color="#b33015"/>
    </linearGradient>
  </defs>
  <circle cx="32" cy="32" r="32" fill="url(#bg)"/>
  <circle cx="32" cy="32" r="30" fill="none" stroke="url(#red)" stroke-width="3"/>
  <circle cx="32" cy="32" r="26" fill="none" stroke="url(#red)" stroke-width="1" opacity="0.6"/>
  <line x1="32" y1="6" x2="32" y2="58" stroke="url(#red)" stroke-width="0.8" opacity="0.3"/>
  <line x1="6" y1="32" x2="58" y2="32" stroke="url(#red)" stroke-width="0.8" opacity="0.3"/>
  <path d="M18 22 L18 16 L26 16 L26 22 L22 22" fill="none" stroke="url(#red)" stroke-width="2" stroke-linecap="round"/>
  <path d="M20 20 L20 18 L24 18 L24 20" fill="none" stroke="url(#red)" stroke-width="1.5" stroke-linecap="round"/>
  <path d="M38 18 Q42 14 46 18 Q50 22 46 24 L42 24 Q38 24 38 20 Z" fill="none" stroke="url(#red)" stroke-width="2" stroke-linecap="round"/>
  <path d="M16 44 Q20 40 24 44 Q28 48 32 44" fill="none" stroke="url(#red)" stroke-width="2" stroke-linecap="round"/>
  <path d="M36 48 L42 36 L48 48" fill="none" stroke="url(#red)" stroke-width="2" stroke-linecap="round" stroke-linejoin="round"/>
</svg>
