<svg xmlns="http://www.w3.org/2000/svg" viewBox="0 0 64 64">
  <defs>
    <linearGradient id="bg" x1="0%" y1="0%" x2="100%" y2="100%">
      <stop offset="0%" stop-color="#1a1a1a"/>
      <stop offset="100%" stop-color="#0a0a0a"/>
    </linearGradient>
    <linearGradient id="red" x1="0%" y1="0%" x2="100%" y2="100%">
      <stop offset="0%" stop-color="#b71c1c"/>
      <stop offset="50%" stop-color="#d32f2f"/>
      <stop offset="100%" stop-color="#9a1a1a"/>
    </linearGradient>
  </defs>
  <rect width="64" height="64" rx="3" fill="url(#bg)"/>
  <rect x="3" y="3" width="58" height="58" rx="2" fill="none" stroke="url(#red)" stroke-width="3"/>
  <rect x="7" y="7" width="50" height="50" rx="1" fill="none" stroke="url(#red)" stroke-width="0.8" opacity="0.5"/>
  <line x1="32" y1="9" x2="32" y2="55" stroke="url(#red)" stroke-width="0.7" opacity="0.3"/>
  <line x1="9" y1="32" x2="55" y2="32" stroke="url(#red)" stroke-width="0.7" opacity="0.3"/>
  <g fill="none" stroke="url(#red)" stroke-width="1.8" stroke-linecap="round" stroke-linejoin="round">
    <path d="M11 12 L28 12"/><path d="M13 14 L26 14"/><path d="M20 12 L20 28"/>
    <path d="M11 18 Q16 22 20 19 Q24 16 28 18"/><path d="M14 24 L26 24"/><path d="M12 28 L28 28"/>
    <path d="M36 11 L36 28"/><path d="M33 13 L45 13"/><path d="M33 13 L33 20 L45 20 L45 13"/>
    <path d="M35 22 L43 22"/><path d="M33 26 L36 28 L45 26"/>
    <path d="M11 36 L28 36"/><path d="M20 33 L20 50"/><path d="M11 42 L28 42"/>
    <path d="M33 35 L45 35"/><path d="M39 33 L39 50"/><path d="M33 42 L45 42"/>
    <path d="M32 46 L39 50 L46 46"/>
    <path d="M13 52 L27 52"/><path d="M15 54 L25 54"/><path d="M20 52 L20 58"/>
    <path d="M36 52 L44 52"/><path d="M38 54 L42 54"/><path d="M40 52 L40 58"/>
  </g>
</svg>
